<svg width="512" height="512" viewBox="0 0 512 512" fill="none" xmlns="http://www.w3.org/2000/svg">
<g clip-path="url(#clip0_21_8)">
<path d="M481.164 203.28H460.876C444.326 203.28 430.445 189.017 430.445 172.089C430.445 163.557 434.049 155.826 440.455 150.094L453.535 137.298C466.482 124.501 466.482 103.573 453.535 90.7764L423.771 61.3174C417.899 55.4522 409.223 51.9865 400.414 51.9865C391.605 51.9865 383.063 55.4522 377.056 61.3174L364.51 73.8474C358.504 80.5124 350.496 84.1114 341.82 84.1114C324.736 84.1114 310.454 70.2484 310.454 53.8526V33.458C310.454 15.4626 295.906 0 277.754 0H237.179C219.026 0 204.612 15.3293 204.612 33.458V53.7193C204.612 70.1151 190.33 83.9781 173.246 83.9781C164.704 83.9781 156.829 80.3791 151.09 74.114L138.143 61.3174C132.27 55.3189 123.594 51.9865 114.785 51.9865C105.976 51.9865 97.4341 55.4522 91.4278 61.3174L61.3968 90.6431C48.5836 103.44 48.5836 124.368 61.3968 137.031L73.9431 149.561C80.6167 155.559 84.3539 163.557 84.3539 172.089C84.3539 189.151 70.4729 203.28 53.9224 203.28H33.6348C15.3492 203.28 0 217.543 0 235.672V255.933V276.195C0 294.19 15.3492 308.586 33.6348 308.586H53.9224C70.4729 308.586 84.3539 322.849 84.3539 339.778C84.3539 348.309 80.6167 356.307 73.9431 362.306L61.3968 374.702C48.5836 387.499 48.5836 408.427 61.3968 421.09L91.1609 450.683C97.0336 456.681 105.709 460.014 114.518 460.014C123.327 460.014 131.87 456.548 137.876 450.683L150.823 437.886C156.428 431.621 164.437 428.022 172.979 428.022C190.063 428.022 204.345 441.885 204.345 458.281V478.542C204.345 496.537 218.759 512 237.045 512H277.62C295.772 512 310.187 496.671 310.187 478.542V458.281C310.187 441.885 324.469 428.022 341.553 428.022C350.095 428.022 358.104 431.754 364.243 438.286L376.789 450.816C382.796 456.681 391.338 460.147 400.147 460.147C408.956 460.147 417.498 456.681 423.504 450.816L453.269 421.224C466.082 408.427 466.082 387.499 453.269 374.702L440.188 361.906C433.782 356.174 430.178 348.309 430.178 339.911C430.178 322.849 444.059 308.72 460.609 308.72H480.897C499.049 308.72 511.996 294.457 511.996 276.328V255.933V235.672C512.263 217.543 499.316 203.28 481.164 203.28ZM364.11 255.933C364.11 314.718 316.46 362.572 257.333 362.572C198.205 362.572 150.556 314.718 150.556 255.933C150.556 197.149 198.205 149.294 257.333 149.294C316.46 149.294 364.11 197.149 364.11 255.933Z" fill="#FF9655"/>
</g>
<defs>
<clipPath id="clip0_21_8">
<rect width="512" height="512" fill="white"/>
</clipPath>
</defs>
</svg>
